<svg width="63" height="50" viewBox="0 0 63 50" fill="none" xmlns="http://www.w3.org/2000/svg">
<g filter="url(#filter0_i_28_2066)">
<path d="M2.54545 0.000105428C1.87036 0.000105428 1.22291 0.263497 0.745546 0.732337C0.268181 1.20118 0 1.83706 0 2.5001C0 3.16314 0.268181 3.79902 0.745546 4.26786C1.22291 4.7367 1.87036 5.00009 2.54545 5.00009H8.19636L14.8756 31.25C15.4433 33.475 17.472 35 19.8062 35H51.548C53.8465 35 55.7989 33.5 56.4022 31.325L63 7.50009H57.6698L51.5455 30H19.8036L13.1269 3.7501C12.8511 2.67317 12.2153 1.7183 11.3214 1.03839C10.4274 0.358478 9.327 -0.00713232 8.19636 0.000105428H2.54545ZM48.3636 35C44.1764 35 40.7273 38.3875 40.7273 42.5C40.7273 46.6125 44.1764 50 48.3636 50C52.5509 50 56 46.6125 56 42.5C56 38.3875 52.5509 35 48.3636 35ZM25.4545 35C21.2673 35 17.8182 38.3875 17.8182 42.5C17.8182 46.6125 21.2673 50 25.4545 50C29.6418 50 33.0909 46.6125 33.0909 42.5C33.0909 38.3875 29.6418 35 25.4545 35ZM33.0909 0.000105428V12.5001H25.4545L35.6364 22.5001L45.8182 12.5001H38.1818V0.000105428H33.0909ZM25.4545 40C26.8902 40 28 41.09 28 42.5C28 43.91 26.8902 45 25.4545 45C24.0189 45 22.9091 43.91 22.9091 42.5C22.9091 41.09 24.0189 40 25.4545 40ZM48.3636 40C49.7993 40 50.9091 41.09 50.9091 42.5C50.9091 43.91 49.7993 45 48.3636 45C46.928 45 45.8182 43.91 45.8182 42.5C45.8182 41.09 46.928 40 48.3636 40Z" fill="#E3C161"/>
</g>
<defs>
<filter id="filter0_i_28_2066" x="0" y="0" width="65" height="52" filterUnits="userSpaceOnUse" color-interpolation-filters="sRGB">
<feFlood flood-opacity="0" result="BackgroundImageFix"/>
<feBlend mode="normal" in="SourceGraphic" in2="BackgroundImageFix" result="shape"/>
<feColorMatrix in="SourceAlpha" type="matrix" values="0 0 0 0 0 0 0 0 0 0 0 0 0 0 0 0 0 0 127 0" result="hardAlpha"/>
<feOffset dx="2" dy="2"/>
<feGaussianBlur stdDeviation="1.5"/>
<feComposite in2="hardAlpha" operator="arithmetic" k2="-1" k3="1"/>
<feColorMatrix type="matrix" values="0 0 0 0 0 0 0 0 0 0 0 0 0 0 0 0 0 0 0.24 0"/>
<feBlend mode="normal" in2="shape" result="effect1_innerShadow_28_2066"/>
</filter>
</defs>
</svg>
