<svg width="49" height="49" viewBox="0 0 49 49" fill="none" xmlns="http://www.w3.org/2000/svg">
<g filter="url(#filter0_i_28_1842)">
<path d="M14.014 35.4327L18.3284 34.1882L44.3057 7.90121C44.5106 7.69124 44.6247 7.40911 44.6233 7.11575C44.622 6.82238 44.5052 6.54133 44.2984 6.3333L42.7426 4.76049C42.6421 4.6572 42.522 4.57496 42.3893 4.51858C42.2567 4.46221 42.1141 4.43282 41.97 4.43214C41.8258 4.43145 41.683 4.45948 41.5498 4.5146C41.4166 4.56971 41.2957 4.6508 41.1942 4.75314L15.2855 30.9715L14.0115 35.4302L14.014 35.4327ZM45.8223 1.64427L47.378 3.21953C49.5242 5.39255 49.5438 8.8983 47.4172 11.0493L20.6486 38.1398L11.4268 40.7954C10.8638 40.953 10.2612 40.8808 9.75138 40.5947C9.24154 40.3085 8.86604 39.8318 8.70729 39.2692C8.58915 38.8646 8.58745 38.435 8.70239 38.0295L11.3851 28.6221L38.0827 1.60262C38.5904 1.09148 39.1948 0.686529 39.8606 0.411387C40.5264 0.136245 41.2403 -0.00357902 41.9607 6.96074e-05C42.6811 0.00371824 43.3936 0.150767 44.0566 0.432638C44.7196 0.71451 45.3198 1.12556 45.8223 1.64182V1.64427ZM17.6008 4.46896C18.816 4.46896 19.8009 5.46605 19.8009 6.69588C19.8028 6.9866 19.7474 7.27485 19.6379 7.54415C19.5283 7.81345 19.3668 8.05851 19.1624 8.26533C18.9581 8.47216 18.715 8.63668 18.447 8.74949C18.1791 8.8623 17.8915 8.92119 17.6008 8.9228H8.80039C6.36999 8.9228 4.40019 10.917 4.40019 13.3742V40.0923C4.40019 42.552 6.36999 44.5462 8.80039 44.5462H35.2015C37.6319 44.5462 39.6042 42.552 39.6042 40.0923V31.1871C39.6042 29.9573 40.5891 28.9602 41.8043 28.9602C43.0195 28.9602 44.0044 29.9573 44.0044 31.1895V40.0923C44.0044 45.0116 40.0623 49 35.2015 49H8.80039C3.93959 49 0 45.0116 0 40.0923V13.3742C0 8.45732 3.93959 4.46896 8.80039 4.46896H17.6008Z" fill="#E3C161"/>
</g>
<defs>
<filter id="filter0_i_28_1842" x="0" y="0" width="51" height="51" filterUnits="userSpaceOnUse" color-interpolation-filters="sRGB">
<feFlood flood-opacity="0" result="BackgroundImageFix"/>
<feBlend mode="normal" in="SourceGraphic" in2="BackgroundImageFix" result="shape"/>
<feColorMatrix in="SourceAlpha" type="matrix" values="0 0 0 0 0 0 0 0 0 0 0 0 0 0 0 0 0 0 127 0" result="hardAlpha"/>
<feOffset dx="2" dy="2"/>
<feGaussianBlur stdDeviation="1.5"/>
<feComposite in2="hardAlpha" operator="arithmetic" k2="-1" k3="1"/>
<feColorMatrix type="matrix" values="0 0 0 0 0 0 0 0 0 0 0 0 0 0 0 0 0 0 0.24 0"/>
<feBlend mode="normal" in2="shape" result="effect1_innerShadow_28_1842"/>
</filter>
</defs>
</svg>
