<svg width="30" height="42" viewBox="0 0 30 42" fill="none" xmlns="http://www.w3.org/2000/svg">
<g filter="url(#filter0_i_28_2395)">
<path d="M15 42L14.0769 40.9644C13.5 40.389 0 24.5096 0 14.9589C0 6.67397 6.69231 0 15 0C23.3077 0 30 6.67397 30 14.9589C30 24.5096 16.5 40.389 15.9231 41.0795L15 42ZM15 2.30137C7.96154 2.30137 2.30769 7.93973 2.30769 14.9589C2.30769 22.3233 12 34.7507 15 38.4329C18 34.7507 27.6923 22.3233 27.6923 14.9589C27.6923 7.93973 22.0385 2.30137 15 2.30137Z" fill="#E3C161"/>
<path d="M15 20.5115C11.64 20.5115 9 17.9329 9 14.651C9 11.3691 11.64 8.79053 15 8.79053C18.36 8.79053 21 11.3691 21 14.651C21 17.9329 18.36 20.5115 15 20.5115ZM15 11.1347C12.96 11.1347 11.4 12.6584 11.4 14.651C11.4 16.6436 12.96 18.1673 15 18.1673C17.04 18.1673 18.6 16.6436 18.6 14.651C18.6 12.6584 17.04 11.1347 15 11.1347Z" fill="#E3C161"/>
</g>
<defs>
<filter id="filter0_i_28_2395" x="0" y="0" width="32" height="44" filterUnits="userSpaceOnUse" color-interpolation-filters="sRGB">
<feFlood flood-opacity="0" result="BackgroundImageFix"/>
<feBlend mode="normal" in="SourceGraphic" in2="BackgroundImageFix" result="shape"/>
<feColorMatrix in="SourceAlpha" type="matrix" values="0 0 0 0 0 0 0 0 0 0 0 0 0 0 0 0 0 0 127 0" result="hardAlpha"/>
<feOffset dx="2" dy="2"/>
<feGaussianBlur stdDeviation="1.5"/>
<feComposite in2="hardAlpha" operator="arithmetic" k2="-1" k3="1"/>
<feColorMatrix type="matrix" values="0 0 0 0 0 0 0 0 0 0 0 0 0 0 0 0 0 0 0.24 0"/>
<feBlend mode="normal" in2="shape" result="effect1_innerShadow_28_2395"/>
</filter>
</defs>
</svg>
