<svg width="39" height="39" viewBox="0 0 39 39" fill="none" xmlns="http://www.w3.org/2000/svg">
<g filter="url(#filter0_i_28_2394)">
<path d="M8.90749 3.23764C8.7636 3.05254 8.58198 2.90018 8.37468 2.79067C8.16738 2.68117 7.93915 2.61702 7.70516 2.6025C7.47116 2.58797 7.23676 2.6234 7.01751 2.70643C6.79826 2.78947 6.59918 2.9182 6.43351 3.08408L3.91321 5.60683C2.73594 6.78655 2.30208 8.4562 2.81637 9.9211C4.95092 15.9844 8.42316 21.4894 12.9756 26.0277C17.5139 30.5801 23.0188 34.0523 29.082 36.187C30.5469 36.7013 32.2166 36.2674 33.3963 35.0901L35.9166 32.5698C36.0825 32.4041 36.2112 32.205 36.2942 31.9858C36.3773 31.7665 36.4127 31.5321 36.3982 31.2981C36.3836 31.0641 36.3195 30.8359 36.21 30.6286C36.1005 30.4213 35.9481 30.2397 35.763 30.0958L30.1399 25.723C29.9421 25.5697 29.7121 25.4632 29.4673 25.4117C29.2224 25.3602 28.969 25.3649 28.7262 25.4257L23.3882 26.7589C22.6757 26.937 21.9292 26.9276 21.2215 26.7315C20.5137 26.5355 19.8687 26.1595 19.3494 25.6402L13.3631 19.6514C12.8434 19.1323 12.4669 18.4874 12.2704 17.7796C12.0739 17.0719 12.0641 16.3252 12.2419 15.6125L13.5776 10.2745C13.6383 10.0318 13.6431 9.77835 13.5916 9.53346C13.5401 9.28856 13.4336 9.05856 13.2802 8.86082L8.90749 3.23764ZM4.59325 1.24625C5.01979 0.819576 5.53222 0.488525 6.09651 0.27508C6.6608 0.0616358 7.26404 -0.0293181 7.86618 0.00825813C8.46832 0.0458344 9.05557 0.211081 9.58895 0.493025C10.1223 0.77497 10.5896 1.16716 10.9598 1.64355L15.3325 7.26429C16.1345 8.29533 16.4172 9.63836 16.1003 10.9058L14.7671 16.2438C14.6981 16.5203 14.7018 16.8099 14.7779 17.0845C14.8539 17.3591 14.9996 17.6094 15.2009 17.8111L21.1897 23.7999C21.3916 24.0016 21.6423 24.1476 21.9174 24.2236C22.1924 24.2996 22.4825 24.3031 22.7594 24.2338L28.0949 22.9005C28.7204 22.7441 29.3732 22.7319 30.0041 22.8649C30.6349 22.998 31.2273 23.2727 31.7364 23.6683L37.3571 28.041C39.3777 29.6132 39.563 32.599 37.7544 34.4052L35.2341 36.9255C33.4304 38.7292 30.7346 39.5214 28.2216 38.6366C21.7897 36.3735 15.9499 32.6913 11.1353 27.8631C6.30747 23.0492 2.6253 17.2102 0.361887 10.7791C-0.520461 8.26852 0.271702 5.57027 2.0754 3.76656L4.59569 1.24625H4.59325Z" fill="#E3C161"/>
</g>
<defs>
<filter id="filter0_i_28_2394" x="0" y="0" width="41" height="41" filterUnits="userSpaceOnUse" color-interpolation-filters="sRGB">
<feFlood flood-opacity="0" result="BackgroundImageFix"/>
<feBlend mode="normal" in="SourceGraphic" in2="BackgroundImageFix" result="shape"/>
<feColorMatrix in="SourceAlpha" type="matrix" values="0 0 0 0 0 0 0 0 0 0 0 0 0 0 0 0 0 0 127 0" result="hardAlpha"/>
<feOffset dx="2" dy="2"/>
<feGaussianBlur stdDeviation="1.5"/>
<feComposite in2="hardAlpha" operator="arithmetic" k2="-1" k3="1"/>
<feColorMatrix type="matrix" values="0 0 0 0 0 0 0 0 0 0 0 0 0 0 0 0 0 0 0.24 0"/>
<feBlend mode="normal" in2="shape" result="effect1_innerShadow_28_2394"/>
</filter>
</defs>
</svg>
