<svg width="28" height="27" viewBox="0 0 28 27" fill="none" xmlns="http://www.w3.org/2000/svg">
<path d="M11.2603 8.42435L14.3462 2.12198C14.7932 3.03672 15.241 3.95125 15.6884 4.86516L15.6885 4.86537C16.2721 6.05723 16.8551 7.24802 17.4361 8.43865L17.436 8.43867L17.4405 8.44777L17.444 8.45476C17.4929 8.55347 17.6335 8.83729 17.9045 9.08498C18.2255 9.37848 18.5989 9.51411 18.9473 9.55872C20.6447 9.80003 22.3358 10.0477 24.0314 10.2961C24.6535 10.3872 25.2762 10.4784 25.9001 10.5694C24.2392 12.2151 22.5613 13.8554 20.8855 15.4935C20.7186 15.6538 20.4988 15.9079 20.3677 16.2788C20.233 16.6598 20.2458 17.0099 20.2851 17.2668L20.2872 17.2807L20.2896 17.2946C20.6882 19.6122 21.0807 21.9301 21.4728 24.2497C20.8846 23.938 20.2971 23.6271 19.71 23.3165C18.2415 22.5395 16.7755 21.7638 15.3088 20.9798C15.0656 20.8481 14.7303 20.7196 14.3182 20.7247C13.9168 20.7296 13.6003 20.8604 13.4012 20.9607L13.3857 20.9685L13.3703 20.9767C12.2054 21.5977 11.0402 22.2148 9.87297 22.8331L9.87281 22.8331C8.98363 23.3041 8.09323 23.7757 7.20242 24.2493C7.36035 23.3097 7.5208 22.3722 7.68177 21.4316C7.80096 20.7352 7.92043 20.0371 8.03939 19.3352L8.03946 19.3348C8.07487 19.1256 8.11343 18.9062 8.15298 18.6812C8.23991 18.1866 8.33165 17.6648 8.4053 17.1627C8.47464 16.6952 8.32949 16.3141 8.24863 16.1372C8.15701 15.9367 8.01465 15.7113 7.81015 15.516C6.13704 13.8671 4.4617 12.2159 2.77992 10.5703C3.82341 10.42 4.82518 10.2724 5.82501 10.1252C7.10256 9.93698 8.37695 9.74928 9.73119 9.55683L9.73119 9.55687L9.74155 9.55532C10.0477 9.50963 10.4051 9.39376 10.7292 9.12163C11.0266 8.87197 11.1817 8.58282 11.2568 8.43161L11.2568 8.43162L11.2603 8.42435ZM26.8327 10.7102C26.8326 10.7103 26.8304 10.7096 26.8263 10.708C26.8308 10.7093 26.8328 10.7101 26.8327 10.7102Z" stroke="#FBC945" stroke-width="3"/>
</svg>
