<svg width="27" height="27" viewBox="0 0 27 27" fill="none" xmlns="http://www.w3.org/2000/svg">
<path d="M13.5801 0C14.1114 0 14.3886 0.226235 14.5734 0.630227C15.6899 3.01378 16.8141 5.39733 17.9306 7.78088C18.0076 7.94248 18.0769 8.04751 18.2771 8.07175C20.7873 8.44343 23.2897 8.83126 25.7999 9.21101C26.4852 9.31605 26.8625 9.72812 26.7547 10.3341C26.7085 10.5684 26.5622 10.8189 26.3928 10.9967C24.591 12.8631 22.7662 14.7215 20.949 16.5717C20.8104 16.7091 20.7642 16.8303 20.795 17.0404C21.2339 19.6986 21.6651 22.3569 22.0963 25.0152C22.1656 25.4192 22.0578 25.7585 21.7421 26.0009C21.4187 26.2514 21.0722 26.2514 20.7103 26.0575C18.4465 24.8051 16.175 23.5608 13.9112 22.3003C13.7264 22.1953 13.5955 22.2034 13.4107 22.3003C11.17 23.5446 8.92936 24.7728 6.68867 26.0171C6.37298 26.1948 6.06498 26.2675 5.72618 26.0979C5.34888 25.9039 5.15639 25.508 5.22569 25.0394C5.54138 23.0518 5.87248 21.0722 6.19588 19.0846C6.31138 18.3735 6.44228 17.6544 6.54238 16.9434C6.55777 16.8384 6.48078 16.6768 6.39608 16.596C4.61739 14.7699 2.8387 12.9439 1.05232 11.1259C0.705819 10.7785 0.436321 10.4149 0.60572 9.88164C0.775119 9.34837 1.21402 9.25141 1.68371 9.18677C4.13229 8.82318 6.58087 8.43535 9.03716 8.07175C9.24505 8.03943 9.32975 7.94248 9.41445 7.76472C10.5386 5.37309 11.6628 2.98146 12.787 0.589828C12.9795 0.201996 13.2644 0.00807983 13.5801 0Z" fill="#FBC945"/>
</svg>
